<?xml version="1.0" encoding="UTF-8"?>
<svg xmlns="http://www.w3.org/2000/svg" xmlns:xlink="http://www.w3.org/1999/xlink" width="2400" height="2400" viewBox="0 0 2400 2400">

<path fill-rule="nonzero" fill="rgb(100%, 100%, 100%)" fill-opacity="1" d="M 1044.101562 1328.558594 L 1146.988281 944.589844 C 1050.121094 1033.058594 993.921875 1107.269531 967.277344 1167.671875 C 950.402344 1205.921875 946.433594 1236.53125 951.824219 1260.019531 C 956.488281 1280.351562 968.910156 1296.210938 986.117188 1307.519531 C 1002.050781 1317.988281 1021.960938 1325 1044.101562 1328.558594 Z M 1355.898438 1071.441406 L 1253.019531 1455.40625 C 1349.878906 1366.941406 1406.078125 1292.730469 1432.71875 1232.328125 C 1446.128906 1202.101562 1451.351562 1176.621094 1450.300781 1155.648438 L 1543.359375 1133.910156 C 1548.921875 1173.300781 1542.308594 1218.988281 1519.558594 1270.550781 C 1478.210938 1364.300781 1380.191406 1483.011719 1197.429688 1625.585938 L 1085.878906 1712.609375 L 1122.46875 1576.039062 L 1283.769531 974.078125 L 1320.199219 974.070312 C 1340.820312 974.070312 1361.078125 975.980469 1380.449219 979.789062 Z M 1277.53125 823.960938 L 1116.238281 1425.921875 L 1079.800781 1425.929688 C 1025.660156 1425.933594 974.089844 1412.808594 934.164062 1386.570312 C 896.960938 1362.109375 869.933594 1327 859.421875 1281.171875 C 849.628906 1238.511719 854.726562 1187.738281 880.4375 1129.449219 C 921.789062 1035.699219 1019.808594 916.988281 1202.570312 774.410156 L 1314.128906 687.390625 L 1277.53125 823.960938 "/>
</svg>
